<svg xmlns="http://www.w3.org/2000/svg" xmlns:xlink="http://www.w3.org/1999/xlink" viewBox="0 0 2192.96 1003.51"><defs><style>.cls-1,.cls-4{fill:none;}.cls-2{clip-path:url(#clip-path);}.cls-3{fill:#7292cb;}.cls-4{stroke:#4a5fa5;stroke-linecap:round;stroke-linejoin:round;stroke-width:3px;stroke-dasharray:60 100;}</style><clipPath id="clip-path" transform="translate(871.04 133.43)"><polyline class="cls-1" points="0 0 449.65 0 449.65 452.57 0 452.57 0 0"/></clipPath><image id="image" width="366" height="350" xlink:href="../Screenshot_2024-02-08_011911-removebg-preview.png"/><image id="image-2" width="377" height="365" xlink:href="../Screenshot_2024-02-07_233924-removebg-preview.png"/></defs><g id="Layer_2" data-name="Layer 2"><g id="Layer_1-2" data-name="Layer 1"><g class="cls-2"><rect class="cls-3" x="740.32" y="2.12" width="999.78" height="999.78"/><line class="cls-4" x1="1740.1" y1="1001.5" x2="740.1" y2="1.5"/><line class="cls-4" x1="1.5" y1="1001.5" x2="1001.5" y2="1.5"/><line class="cls-4" x1="1965.06" y1="1001.5" x2="965.06" y2="1.5"/><line class="cls-4" x1="226.45" y1="1001.5" x2="1226.45" y2="1.5"/><line class="cls-4" x1="2191.46" y1="1001.61" x2="1191.46" y2="1.61"/><line class="cls-4" x1="452.86" y1="1001.61" x2="1452.86" y2="1.61"/><line class="cls-4" x1="677.82" y1="1001.61" x2="1677.82" y2="1.61"/><line class="cls-4" x1="904.55" y1="1002.01" x2="1904.55" y2="2.01"/><line class="cls-4" x1="1289.63" y1="1001.9" x2="289.63" y2="1.9"/><line class="cls-4" x1="1514.58" y1="1001.9" x2="514.58" y2="1.9"/><use transform="translate(833.64 98.45) scale(0.2)" xlink:href="#image"/><use transform="translate(1058.23 98.45) scale(0.2)" xlink:href="#image"/><use transform="translate(1282.82 98.45) scale(0.2)" xlink:href="#image"/><use transform="translate(833.64 551.02) scale(0.2)" xlink:href="#image"/><use transform="translate(1058.23 551.02) scale(0.2)" xlink:href="#image"/><use transform="translate(1282.82 551.02) scale(0.2)" xlink:href="#image"/><use transform="translate(947.43 210.71) scale(0.19)" xlink:href="#image-2"/><use transform="translate(1172.36 210.71) scale(0.19)" xlink:href="#image-2"/><use transform="translate(952.58 434.59) scale(0.19)" xlink:href="#image-2"/><use transform="translate(1177.51 434.59) scale(0.19)" xlink:href="#image-2"/><use transform="translate(836.1 324.74) scale(0.2)" xlink:href="#image"/><use transform="translate(1060.69 324.74) scale(0.2)" xlink:href="#image"/><use transform="translate(1285.28 324.74) scale(0.2)" xlink:href="#image"/></g></g></g></svg>